<svg xmlns="http://www.w3.org/2000/svg" width="64" height="64" viewBox="0 0 64 64">
    <defs>
      <linearGradient id="bg" x1="0" y1="0" x2="0" y2="1">
        <stop offset="0%" stop-color="#1bbf5a"/>
        <stop offset="55%" stop-color="#13a14a"/>
        <stop offset="100%" stop-color="#0c7536"/>
      </linearGradient>
      <radialGradient id="glow" cx="32%" cy="24%" r="80%">
        <stop offset="0%" stop-color="#ffffff" stop-opacity="0.28"/>
        <stop offset="60%" stop-color="#ffffff" stop-opacity="0"/>
      </radialGradient>
    </defs>
    <rect width="64" height="64" fill="url(#bg)"/>
    <rect width="64" height="64" fill="url(#glow)"/>
    <circle cx="8" cy="19" r="3" fill="#ef4444" opacity="0.18"/><circle cx="6" cy="52" r="5" fill="#f59e0b" opacity="0.29"/><circle cx="4" cy="22" r="7" fill="#3b82f6" opacity="0.20"/><circle cx="3" cy="56" r="4" fill="#ffffff" opacity="0.31"/><circle cx="1" cy="26" r="6" fill="#a855f7" opacity="0.22"/><circle cx="63" cy="60" r="3" fill="#ef4444" opacity="0.33"/><circle cx="61" cy="30" r="5" fill="#f59e0b" opacity="0.24"/><circle cx="59" cy="0" r="7" fill="#3b82f6" opacity="0.35"/><circle cx="57" cy="34" r="4" fill="#ffffff" opacity="0.26"/><circle cx="55" cy="4" r="6" fill="#a855f7" opacity="0.37"/><circle cx="53" cy="38" r="3" fill="#ef4444" opacity="0.28"/><circle cx="51" cy="8" r="5" fill="#f59e0b" opacity="0.19"/><circle cx="49" cy="42" r="7" fill="#3b82f6" opacity="0.30"/><circle cx="47" cy="12" r="4" fill="#ffffff" opacity="0.21"/><circle cx="45" cy="45" r="6" fill="#a855f7" opacity="0.32"/><circle cx="44" cy="15" r="3" fill="#ef4444" opacity="0.23"/><circle cx="42" cy="49" r="5" fill="#f59e0b" opacity="0.34"/><circle cx="40" cy="19" r="7" fill="#3b82f6" opacity="0.25"/><circle cx="38" cy="53" r="4" fill="#ffffff" opacity="0.36"/><circle cx="36" cy="23" r="6" fill="#a855f7" opacity="0.27"/><circle cx="34" cy="57" r="3" fill="#ef4444" opacity="0.18"/><circle cx="32" cy="27" r="5" fill="#f59e0b" opacity="0.29"/>
    
    <defs>
      <clipPath id="clip-ic"><circle cx="32" cy="32" r="21.76"/></clipPath>
      <radialGradient id="sh-ic" cx="38%" cy="32%" r="75%">
        <stop offset="0%" stop-color="#ffffff"/>
        <stop offset="78%" stop-color="#f3f4f6"/>
        <stop offset="100%" stop-color="#d6d8dd"/>
      </radialGradient>
    </defs>
    <circle cx="32" cy="32" r="22.1952" fill="#0008" opacity="0.18"/>
    <circle cx="32" cy="32" r="21.76" fill="url(#sh-ic)"/>
    <g clip-path="url(#clip-ic)">
      <polygon points="32.0,24.6 39.0,29.7 36.3,38.0 27.7,38.0 25.0,29.7" fill="#17171c"/>
      <polygon points="39.9,21.1 37.6,13.8 43.8,9.3 50.0,13.8 47.6,21.1" fill="#17171c"/><polygon points="44.8,36.2 51.0,31.7 57.2,36.2 54.9,43.5 47.2,43.5" fill="#17171c"/><polygon points="32.0,45.5 38.2,50.0 35.8,57.3 28.2,57.3 25.8,50.0" fill="#17171c"/><polygon points="19.2,36.2 16.8,43.5 9.1,43.5 6.8,36.2 13.0,31.7" fill="#17171c"/><polygon points="24.1,21.1 16.4,21.1 14.0,13.8 20.2,9.3 26.4,13.8" fill="#17171c"/>
      <line x1="35.5" y1="27.2" x2="39.9" y2="21.1" stroke="#17171c" stroke-width="1.1" stroke-linecap="round"/><line x1="37.7" y1="33.8" x2="44.8" y2="36.2" stroke="#17171c" stroke-width="1.1" stroke-linecap="round"/><line x1="32.0" y1="38.0" x2="32.0" y2="45.5" stroke="#17171c" stroke-width="1.1" stroke-linecap="round"/><line x1="26.3" y1="33.8" x2="19.2" y2="36.2" stroke="#17171c" stroke-width="1.1" stroke-linecap="round"/><line x1="28.5" y1="27.2" x2="24.1" y2="21.1" stroke="#17171c" stroke-width="1.1" stroke-linecap="round"/>
    </g>
    <circle cx="32" cy="32" r="21.76" fill="none" stroke="#c2c5cc" stroke-width="0.4"/>
  </svg>